<svg xmlns="http://www.w3.org/2000/svg" width="60" height="60" viewBox="0 0 24 24" fill="none" stroke="#577E46" stroke-width="2" stroke-linecap="round" stroke-linejoin="round">
  <path d="M22 6h-5.2c-.18 0-.36.05-.51.15l-4.8 3.2c-2.77 1.85-5.2 4.3-3.48 7.65.29.57.88.92 1.49.92V22l9.5-2v-1.8c0 1 2 .29 3-.2.8-.4 1-2 1-2S24.5 15 22 6Z" />
  <path d="M12 22v-3.4c0-.24.8-.45.22-.6.55-.24 1.2-.49 1.89-.65.93-.21 1.54-1.06 1.54-2.01V14" />
  <path d="M18 2 6 10" />
  <path d="M15 5.5 5.2 11.8c-.37.24-.59.65-.59 1.08V20" />
</svg> 