<svg xmlns="http://www.w3.org/2000/svg" width="60" height="60" viewBox="0 0 24 24" fill="none" stroke="#577E46" stroke-width="2" stroke-linecap="round" stroke-linejoin="round">
  <path d="M10 5.172C10 3.12 8.21 1.55 6.17 1.95C4.7 2.26 3.5 3.55 3.5 5v3.75c0 1.93 1.57 3.5 3.5 3.5h2c0.71 0 1.37-0.16 1.95-0.45l4.95-2.83c1.24-0.71 2.1-2.03 2.1-3.55 0-2.21-1.79-4-4-4h-3c-1.1 0-2 0.9-2 2"></path>
  <path d="M9.5 14v4c0 1.1 0.9 2 2 2s2-0.9 2-2v-5.3c0-1.22-1.28-2.01-2.32-1.42L9.5 12.3"></path>
  <path d="M3 18c0 1.1 0.9 2 2 2s2-0.9 2-2v-3"></path>
  <path d="M22 16c0 2.21-1.79 4-4 4"></path>
  <path d="M18 10c2.21 0 4 1.79 4 4"></path>
  <circle cx="18" cy="14" r="1"></circle>
</svg> 