<svg width="32" height="32" viewBox="0 0 32 32" fill="none" xmlns="http://www.w3.org/2000/svg">
  <rect width="32" height="32" rx="6" fill="#577E46"/>
  <path d="M18.2 7.1C18.7 6.9 19.2 7.1 19.5 7.5L26.5 17.5C26.8 17.9 26.8 18.5 26.4 18.9L19.4 25.9C19 26.3 18.4 26.3 18 25.9L13 20.9C12.6 20.5 12.6 19.9 13 19.5L18.2 7.1Z" fill="#F6E6BB"/>
  <path d="M14.8 7.1C14.3 6.9 13.8 7.1 13.5 7.5L6.5 17.5C6.2 17.9 6.2 18.5 6.6 18.9L13.6 25.9C14 26.3 14.6 26.3 15 25.9L20 20.9C20.4 20.5 20.4 19.9 20 19.5L14.8 7.1Z" fill="#AC510A"/>
</svg> 